<?xml version="1.0" ?><!DOCTYPE svg  PUBLIC '-//W3C//DTD SVG 1.1//EN'  'http://www.w3.org/Graphics/SVG/1.1/DTD/svg11.dtd'><svg width="512px" height="512px" viewBox="0 0 512 512" enable-background="new 0 0 512 512" id="Layer_1" version="1.1" xml:space="preserve" xmlns="http://www.w3.org/2000/svg" xmlns:xlink="http://www.w3.org/1999/xlink"><g><g><path d="M358,236H154c-5.523,0-10-4.477-10-10V115c0-5.523,4.477-10,10-10h204c5.523,0,10,4.477,10,10v111    C368,231.523,363.523,236,358,236z M164,216h184v-91H164V216z"/></g><g><path d="M154,287c-5.523,0-10-4.477-10-10V66c0-5.523,4.477-10,10-10s10,4.477,10,10v211C164,282.523,159.523,287,154,287z"/></g><g><path d="M358,287c-5.523,0-10-4.477-10-10V66c0-5.523,4.477-10,10-10s10,4.477,10,10v211C368,282.523,363.523,287,358,287z"/></g><g><path d="M382,287H130c-5.523,0-10-4.477-10-10s4.477-10,10-10h252c5.523,0,10,4.477,10,10S387.523,287,382,287z"/></g><g><path d="M323,456c-2.559,0-5.119-0.976-7.071-2.929l-169-169c-3.905-3.905-3.905-10.237,0-14.143    c3.905-3.905,10.237-3.905,14.143,0l169,169c3.905,3.905,3.905,10.237,0,14.143C328.119,455.024,325.559,456,323,456z"/></g><g><path d="M189.833,455.167c-2.559,0-5.119-0.976-7.071-2.929c-3.905-3.905-3.905-10.237,0-14.143l168.167-168.167    c3.905-3.905,10.237-3.905,14.143,0s3.905,10.237,0,14.143L196.904,452.238C194.952,454.191,192.392,455.167,189.833,455.167z"/></g></g></svg>