<?xml version="1.0" ?><!DOCTYPE svg  PUBLIC '-//W3C//DTD SVG 1.1//EN'  'http://www.w3.org/Graphics/SVG/1.1/DTD/svg11.dtd'><svg id="Calque_1" style="enable-background:new 0 0 100 100;" version="1.1" viewBox="0 0 100 100" xml:space="preserve" xmlns="http://www.w3.org/2000/svg" xmlns:xlink="http://www.w3.org/1999/xlink"><g><g><circle cx="38.2" cy="24.5" r="15.1"/><circle cx="38.1" cy="49.1" r="1.4"/><path d="M44.2,45.5v-3.3c0-0.7-0.7-1.2-1.4-0.9l-3.5,1.7c-0.3-0.4-0.7-0.7-1.2-0.7s-0.9,0.3-1.2,0.7l-3.5-1.7     c-0.6-0.3-1.4,0.1-1.4,0.9v3.3c0,0.7,0.7,1.2,1.4,0.9l3.5-1.7c0.3,0.4,0.7,0.7,1.2,0.7s0.9-0.3,1.2-0.7l3.5,1.7     C43.4,46.7,44.2,46.3,44.2,45.5z"/><circle cx="38.2" cy="54.2" r="1.4"/><path d="M94.2,40.5H65.3c-1.8,0-3.3,1.5-3.3,3.3c0,1.8,1.5,3.3,3.3,3.3h8.5c-2,3.8-6,8.3-8.2,8.5c-3.1,0.2-6.7-3.9-9.2-6.6     c-2.6-3-4.9-5.5-8.6-5.5h-1.1l-2.9,9.2c-0.8,2.6-2.4,4.8-4.6,6.3c-0.7,0.5-1.6,0.5-2.2,0c-2.2-1.5-3.8-3.8-4.6-6.3l-2.9-9.2h-1.1     c-3.9,0-8.2,0-25.5,39.4c-1.4,3.2,0.1,6.8,3.2,8.2c0.8,0.4,1.6,0.5,2.5,0.5c2.4,0,4.7-1.4,5.7-3.8c3.1-7.1,6.8-14.8,10-21.1v22.1     c0,2.9,2.3,5.2,5.2,5.2h16.9c2.9,0,5.2-2.3,5.2-5.2V62.1c3.7,3.3,8.5,6.3,14.6,5.9c10.3-0.7,17.1-12.7,18.4-15.1     c1-1.9,0.9-4,0-5.8h9.3c1.8,0,3.3-1.5,3.3-3.3C97.5,42,96,40.5,94.2,40.5z"/><path d="M77.9,26.8v6.7c0,0.5-0.4,1-0.9,1l-3.5,0.6c-0.5,0.1-0.9,0.5-0.9,1.1c0,0.6,0.5,1.1,1.1,1.1H85c0.6,0,1.1-0.5,1.1-1.1     c0-0.5-0.4-1-0.9-1.1l-3.4-0.6c-0.5-0.1-0.9-0.5-0.9-1v-6.7c2.6-0.4,4.9-1.9,6.4-4.1c1.3-2,1.8-4.5,1.4-7l-1.4-8.2     c-0.2-1-1-1.6-2-1.6H73.3c-1,0-1.8,0.7-1.9,1.6L70,15.7c-0.4,2.5,0.1,5,1.4,7C72.9,24.9,75.3,26.4,77.9,26.8z M74.5,9.1h9.9     l1.1,6.4c-0.9-0.8-1.9-1.4-3.4-1.6c-3.8-0.5-4.8,3.6-8.8,2L74.5,9.1z"/></g></g></svg>